<svg id="Layer_1" data-name="Layer 1" xmlns="http://www.w3.org/2000/svg" viewBox="0 0 512 421.65"><defs><style>.cls-1{fill:#034e7b;}</style></defs><path class="cls-1" d="M195.76,105.41a60.3,60.3,0,0,0-60.23,60.24c3,79.8,117.45,79.78,120.47,0A60.3,60.3,0,0,0,195.76,105.41Zm0,90.35a30.15,30.15,0,0,1-30.11-30.11c1.51-39.9,58.72-39.89,60.23,0A30.15,30.15,0,0,1,195.76,195.76Z" transform="translate(0 -45.18)"/><path class="cls-1" d="M391.53,180.71V45.18H0V406.59H301.18v60.23H512V180.71ZM481.88,256H331.29V210.82H481.88Zm-180.7-75.29V256h-197a90.57,90.57,0,0,0-74-74V149.33a90.59,90.59,0,0,0,74-74H287.38a90.59,90.59,0,0,0,74,74v31.38Zm60.23-62.14a60.49,60.49,0,0,1-43.27-43.28h43.27Zm-288-43.28a60.49,60.49,0,0,1-43.27,43.28V75.29ZM30.12,212.73A60.46,60.46,0,0,1,73.39,256H30.12Zm0,73.39H301.18v30.12H30.12Zm0,90.35V346.35H301.18v30.12Zm301.17,60.24V286.12H481.88V436.71Z" transform="translate(0 -45.18)"/><path class="cls-1" d="M361.41,316.24h30.12v30.11H361.41Z" transform="translate(0 -45.18)"/><path class="cls-1" d="M421.65,316.24h30.11v30.11H421.65Z" transform="translate(0 -45.18)"/><path class="cls-1" d="M361.41,376.47h30.12v30.12H361.41Z" transform="translate(0 -45.18)"/><path class="cls-1" d="M421.65,376.47h30.11v30.12H421.65Z" transform="translate(0 -45.18)"/></svg>