<svg id="Capa_1" data-name="Capa 1" xmlns="http://www.w3.org/2000/svg" viewBox="0 0 512 512"><defs><style>.cls-1{fill:#034e7b;}</style></defs><path class="cls-1" d="M448.23,331.48l-76.46,51A45.06,45.06,0,0,0,327,342H252l-9.78-7.34a113.32,113.32,0,0,0-126.29-6.51L112,330.51V317a15,15,0,0,0-15-15H15A15,15,0,0,0,0,317V497a15,15,0,0,0,15,15H97a15,15,0,0,0,15-15v-2.7l122.88,17.55c.72.1,2.17.15,2.18.15H339.63a84.77,84.77,0,0,0,57.65-22.54L498.8,395.75A41,41,0,0,0,512,365.61c0-32.76-36.51-52.3-63.77-34.13ZM82,482H30V332H82ZM482,365.61a11,11,0,0,1-3.54,8.09L376.94,467.41A54.84,54.84,0,0,1,339.63,482H238.07L112,464v-98.5l19.37-11.62a83.31,83.31,0,0,1,92.84,4.79L238,369a15,15,0,0,0,9,3h80a15,15,0,0,1,0,30H237a15,15,0,0,0,0,30h97.89a54.8,54.8,0,0,0,30.51-9.24l99.48-66.32A11,11,0,0,1,482,365.61Z" transform="translate(0 0)"/><path class="cls-1" d="M276,305a90.1,90.1,0,0,0,90-90c0-20.67-13.19-49.06-40.32-86.79C306.67,101.78,288,80.86,287.16,80a15,15,0,0,0-22.32,0c-.79.88-19.51,21.8-38.52,48.23C199.19,165.94,186,194.33,186,215A90.1,90.1,0,0,0,276,305Zm0-192C302.75,145,336,192.35,336,215a60,60,0,0,1-120,0C216,192.35,249.25,145,276,113Z" transform="translate(0 0)"/><path class="cls-1" d="M411,150a60.07,60.07,0,0,0,60-60c0-13.71-8.28-31.88-25.32-55.58-11.59-16.11-23-28.9-23.52-29.44a15,15,0,0,0-22.32,0c-.48.54-11.93,13.33-23.52,29.44C359.28,58.12,351,76.29,351,90A60.07,60.07,0,0,0,411,150Zm0-111.77c15.94,20,30,42.48,30,51.77a30,30,0,0,1-60,0C381,80.44,395.1,58.11,411,38.23Z" transform="translate(0 0)"/><path class="cls-1" d="M141,150a60.07,60.07,0,0,0,60-60c0-13.71-8.28-31.88-25.32-55.58-11.59-16.11-23-28.9-23.52-29.44a15,15,0,0,0-22.32,0c-.49.54-11.93,13.33-23.52,29.44C89.28,58.12,81,76.29,81,90A60.07,60.07,0,0,0,141,150Zm0-111.77c15.94,20,30,42.48,30,51.77a30,30,0,0,1-60,0C111,80.44,125.1,58.11,141,38.23Z" transform="translate(0 0)"/></svg>