<svg id="Слой_1" data-name="Слой 1" xmlns="http://www.w3.org/2000/svg" viewBox="0 0 409.63 409.63"><defs><style>.cls-1{fill:#034e7b;fill-rule:evenodd;}</style></defs><g id="Layer_1"><g id="_3090024889824" data-name=" 3090024889824"><path class="cls-1" d="M253.34,294.2l38.57-39.07c5.16,3.54,9,6.33,14,10l33.59,24.63a56.3,56.3,0,0,1,6.34,5.93c1.46,1.45,1.28,1.33,2.48,2.62.64.7.43.54,1.48,1.58l26.54,26.58c.41.46,1.09,1.28,1.4,1.67a40.85,40.85,0,0,1,2.53,3.6c19.34,30.49-20.35,78.71-61.27,37.77-17.58-17.6-30-29.21-45.21-48.77-5.83-7.49-16.62-18.07-20.42-26.57ZM320.37,0H331.9A84.46,84.46,0,0,1,354,4.55c8.74,3.06,14.76,6,14.76,15.88,0,11.27-37.79,32.94-37.79,46,0,11,11.73,15.17,19.22,9L380.08,46c6.28-6.17,15.66-8.25,21,.34s7.93,19.18,8.57,30.28V87.49c-.68,12.17-3.62,24-8.16,33.06-5.24,10.4-9.16,15.75-17.12,23.74A75.18,75.18,0,0,1,360.18,161c-17.21,7.13-44.61,10.93-62.67,2.71l-37,37.55c14.6,9.78,28,21.08,42.49,31.06,15.39,10.59,49.38,34.77,62.47,47.86l18.39,18.38c17.18,17.18,25.79,28.58,25.79,54.91,0,31.28-26.89,53.94-55.83,56.18h-9.38a56.28,56.28,0,0,1-24.89-7.95c-14.34-8.69-46.38-42-56-54.36l-17.11-20.69c-3-3.41-5.3-6.64-8.2-10.19-5.43-6.65-39.9-46.37-41.09-50.84-6.37,1.7-26.79,27-33.71,31.67,2.62,5.47,5.1,20.14,5.1,28.6,0,44.58-37.37,83.76-81.72,83.76-14.7,0-28.3-1-40.46-8.57-6.78-4.2-7.14-13.91-2-19.58L71.11,355.1C84.42,341.92,77.7,331,67.42,331c-14.52,0-35.84,37.79-47,37.79-9.49,0-13.32-5.57-15.93-14.71C1,341.73,0,334.13,0,320.76c0-30.65,22.78-61.23,50.19-72.4,16.94-6.9,44.18-10.49,61.93-2.42l38-37.55c-7-10.49-17-18.33-25.08-28l-1.39-1.68c-1-1.21-1.2-1.46-2.39-2.71-9.71-10.27-20.33-20-29.47-30.81l-.46-.55-1.86-2.23c-1.1-1.3-1.28-1.51-2.42-2.69-1.91-2-3.18-3.15-5.12-5.09-2.31-2.31-7.81-8.76-9.45-10-6.81,1.81-7.59,10.21-16.35,10.21-12,0-14-9.18-19.85-19C27.48,101.16,19.17,85.46,9.61,71.09,3.78,62.32,0,52.81,0,40.86,0,19.37,19.38,0,40.86,0,54,0,62.09,3.78,71.71,10c18.05,11.7,37.65,21.52,55.59,33.28,17.67,11.58.49,23-3.69,29.23,3.8,5.68,10.17,10.75,14.6,16,1.65,2,3.22,3.32,5.06,5.16,11.36,11.32,49.19,54.5,59.76,61.29l43.16-42.65c-2.63-5.47-5.11-20.15-5.11-28.6,0-46.22,37-80.86,79.29-83.77ZM236.23,276.07C235,272,216.58,251.8,213.5,247.21l28.85-28.35c7.84,4,21.06,15.63,29.38,21.2l-35.5,36ZM24.52,42.9A18.28,18.28,0,0,1,42.9,24.52c6.53,0,11.34,3.82,15.91,6.57l43.34,26.12c-3.31,9.15-19.7,9.54,2.81,31.92l45.45,48.53c2.42,2.63,4.6,4.58,7.16,7.14,2.3,2.3,4.54,4.23,6.6,6.69,3.53,4.22,16.17,18.91,20.73,20.13-1.14,4.26-5,6.51-7.92,9.45-3.23,3.23-5.8,6.49-9.45,8.94L129,147.88c-4.53-4.92-9.41-8.86-13.77-13.81-7.28-8.26-34-38.6-40.55-40.19-9.72-2.36-12.07,6.33-17.43,8.27L31.48,59.44c-2.75-4.54-7-9.88-7-16.54ZM306.46,63.33c0,11.62,2.43,21.42,10.43,29.42,10.38,10.38,27.8,13.32,41.36,7,9.46-4.37,21.05-20.61,26.87-22.16,0,24.37-6.74,41.75-25.54,55.16-8.61,6.14-16.86,8.9-30.37,10.57-4.4.55-12.06-.19-17.47-1.55-23.18-5.82-16.11-12.15-40.94,13.55l-28.16,28c-1.2,1.3-.54.69-2,2.12L204.9,221.24l-.5.53-6.18,6.08c-.14.15-.34.38-.49.53l-.48.54c-.15.15-.35.37-.49.53l-5.15,5.06c-1.25,1.15-1.74,1.53-2.66,2.45L155.89,270.3c-4.84,4.84-19,16.27-19,22.88,0,12.09,21.36,43.91-13,76.9-12.71,12.2-26.69,15-46.25,15,3.16-11.85,25.53-13.61,25.53-46,0-15.56-17.13-32.69-32.69-32.69-29.93,0-27.56,14.24-46,26.56,0-16.06.91-23.39,6.44-34.42,10-20,26.55-29.49,49.47-32.34,16-2,24.31,6.49,36,6.49,5.27,0,8.5-4.92,11.5-7.92L264.32,128.46c13.14-13.13,8.24-12.52,3.9-28.93-7.08-26.82,5.15-55.42,29-67.88C308.07,26,315.63,24.52,332,24.52c-1.06,3.95-4.19,5.73-6.9,8.42C317,41,306.46,49.76,306.46,63.33Z" transform="translate(0 0)"/><path class="cls-1" d="M289.09,299.31c0,8.18,7.31,12.92,12.52,18.13l30.13,30.14c7.18,7.17,15.59,18.84,26.13,9.27,5.21-4.73,5.31-12.73-.55-18.51-2.8-2.75-4.9-4.82-7.7-7.62L320,301.1c-9.46-9.46-9.61-13-20.69-13-5.65,0-10.22,5.89-10.22,11.24Z" transform="translate(0 0)"/></g></g></svg>