<svg id="Слой_1" data-name="Слой 1" xmlns="http://www.w3.org/2000/svg" viewBox="0 0 263.6 64.17"><defs><style>.cls-1{fill:#1d1d1b;}.cls-2{fill:#f39200;}.cls-3{fill:#0d0706;}</style></defs><path class="cls-1" d="M371.05,297.26c0-12.66,10.21-22.93,23.81-22.93s23.68,10.14,23.68,22.93-10.2,22.92-23.8,22.92S371.05,310,371.05,297.26Zm35,0c0-6.37-4.59-11.91-11.33-11.91s-11.15,5.42-11.15,11.91,4.6,11.9,11.27,11.9S406.07,303.74,406.07,297.26Z" transform="translate(-285.62 -274.33)"/><path class="cls-1" d="M432,285.92H418.79V275.21h38.67v10.71H444.24V319.3H432Z" transform="translate(-285.62 -274.33)"/><path class="cls-1" d="M474.84,285.92H461.62V275.21h38.67v10.71H487.06V319.3H474.84Z" transform="translate(-285.62 -274.33)"/><path class="cls-1" d="M501.73,297.26c0-12.66,10.21-22.93,23.81-22.93s23.68,10.14,23.68,22.93-10.2,22.92-23.8,22.92S501.73,310,501.73,297.26Zm35,0c0-6.37-4.59-11.91-11.33-11.91s-11.15,5.42-11.15,11.91,4.6,11.9,11.27,11.9S536.75,303.74,536.75,297.26Z" transform="translate(-285.62 -274.33)"/><path class="cls-1" d="M373.77,328.91h-2.89v-.57h6.38v.57h-2.88v7.7h-.61Z" transform="translate(-285.62 -274.33)"/><path class="cls-1" d="M377.4,333.6a3.12,3.12,0,0,1,3.11-3.16,3.16,3.16,0,1,1-3.11,3.16Zm5.57,0a2.47,2.47,0,1,0-2.46,2.61A2.54,2.54,0,0,0,383,333.6Z" transform="translate(-285.62 -274.33)"/><path class="cls-1" d="M385.38,330.58H386v1.35a2.9,2.9,0,0,1,2.48-1.49,3.16,3.16,0,0,1,0,6.31,2.89,2.89,0,0,1-2.48-1.44v3.19h-.58Zm5.36,3a2.42,2.42,0,0,0-2.36-2.6,2.6,2.6,0,0,0,0,5.19A2.36,2.36,0,0,0,390.74,333.6Z" transform="translate(-285.62 -274.33)"/><path class="cls-1" d="M393.17,330.58h4v.52h-3.4v5.51h-.58Z" transform="translate(-285.62 -274.33)"/><path class="cls-1" d="M397.84,333.6a3.1,3.1,0,1,1,3.08,3.15A3.08,3.08,0,0,1,397.84,333.6Zm5.56,0a2.47,2.47,0,1,0-2.45,2.61A2.54,2.54,0,0,0,403.4,333.6Z" transform="translate(-285.62 -274.33)"/><path class="cls-1" d="M405.81,330.58h2.76c1.16,0,1.94.58,1.94,1.5a1.45,1.45,0,0,1-1,1.39,1.57,1.57,0,0,1,1.36,1.5c0,1-.87,1.64-2.17,1.64h-2.88Zm2.67,2.7c.84,0,1.44-.4,1.44-1.16,0-.6-.49-1-1.4-1h-2.13v2.18Zm.14,2.81c1,0,1.63-.46,1.63-1.21s-.61-1.12-1.77-1.12h-2.09v2.33Z" transform="translate(-285.62 -274.33)"/><path class="cls-1" d="M412.25,333.6a3.1,3.1,0,1,1,3.08,3.15A3.08,3.08,0,0,1,412.25,333.6Zm5.56,0a2.47,2.47,0,1,0-2.45,2.61A2.54,2.54,0,0,0,417.81,333.6Z" transform="translate(-285.62 -274.33)"/><path class="cls-1" d="M420,332.77h3.17v.66H420Z" transform="translate(-285.62 -274.33)"/><path class="cls-1" d="M424.63,333.6a3.11,3.11,0,0,1,3.07-3.16,3,3,0,0,1,2.4,1.12l-.4.42a2.72,2.72,0,0,0-2-1,2.62,2.62,0,0,0,.05,5.22,2.63,2.63,0,0,0,2-1l.43.38a3.14,3.14,0,0,1-2.46,1.19A3.09,3.09,0,0,1,424.63,333.6Z" transform="translate(-285.62 -274.33)"/><path class="cls-1" d="M431.37,333.58a3,3,0,0,1,2.86-3.14A2.86,2.86,0,0,1,437,333.6a1.69,1.69,0,0,1,0,.23h-5a2.4,2.4,0,0,0,2.36,2.38,2.73,2.73,0,0,0,2.07-.95l.4.36a3.15,3.15,0,0,1-2.49,1.13A3,3,0,0,1,431.37,333.58Zm5-.27a2.24,2.24,0,0,0-2.16-2.34,2.36,2.36,0,0,0-2.22,2.34Z" transform="translate(-285.62 -274.33)"/><path class="cls-1" d="M438.69,330.58h.58v1.35a2.9,2.9,0,0,1,2.48-1.49,3.16,3.16,0,0,1,0,6.31,2.89,2.89,0,0,1-2.48-1.44v3.19h-.58Zm5.36,3a2.42,2.42,0,0,0-2.36-2.6,2.6,2.6,0,0,0,0,5.19A2.36,2.36,0,0,0,444.05,333.6Z" transform="translate(-285.62 -274.33)"/><path class="cls-1" d="M446.48,330.58h2.76c1.16,0,1.94.58,1.94,1.5a1.45,1.45,0,0,1-1,1.39,1.57,1.57,0,0,1,1.36,1.5c0,1-.87,1.64-2.17,1.64h-2.88Zm2.67,2.7c.84,0,1.44-.4,1.44-1.16,0-.6-.49-1-1.4-1h-2.13v2.18Zm.14,2.81c1,0,1.63-.46,1.63-1.21s-.61-1.12-1.77-1.12h-2.09v2.33Z" transform="translate(-285.62 -274.33)"/><path class="cls-1" d="M453.33,330.58h.58v5.26l4.09-5.26h.58v6H458v-5.26l-4.09,5.26h-.58Z" transform="translate(-285.62 -274.33)"/><path class="cls-1" d="M460.36,333.6a3.11,3.11,0,0,1,3.07-3.16,3,3,0,0,1,2.4,1.12l-.4.42a2.72,2.72,0,0,0-2-1,2.62,2.62,0,0,0,.05,5.22,2.67,2.67,0,0,0,2-1l.42.38a3.09,3.09,0,0,1-5.53-2Z" transform="translate(-285.62 -274.33)"/><path class="cls-1" d="M467.52,330.58h.58v2.68h4v-2.68h.58v6h-.58v-2.82h-4v2.82h-.58Z" transform="translate(-285.62 -274.33)"/><path class="cls-1" d="M474.38,334.84c0-1.26,1.08-2,2.64-2a7,7,0,0,1,2,.26v-.26a1.74,1.74,0,0,0-2-1.85,4,4,0,0,0-1.89.49l-.21-.51a4.8,4.8,0,0,1,2.14-.52,2.6,2.6,0,0,1,1.9.66,2.29,2.29,0,0,1,.61,1.7v3.76H479v-1a2.76,2.76,0,0,1-2.31,1.15C475.47,336.75,474.38,336.11,474.38,334.84Zm4.65-.49v-.68a8,8,0,0,0-2-.28c-1.27,0-2,.57-2,1.43s.7,1.39,1.74,1.39A2.07,2.07,0,0,0,479,334.35Z" transform="translate(-285.62 -274.33)"/><path class="cls-1" d="M483.08,334.21a1.92,1.92,0,0,1-1.74-1.83c0-1.06.83-1.8,2.21-1.8h2.69v6h-.57v-2.32h-2l-1.79,2.32h-.71Zm2.59-.44V331.1h-2c-1.05,0-1.66.52-1.66,1.31s.72,1.36,1.69,1.36Z" transform="translate(-285.62 -274.33)"/><path class="cls-1" d="M492,330.58h.58v3.87l3.73-3.87h.77l-2.64,2.67,2.72,3.36h-.73L494,333.67l-1.46,1.47v1.47H492Z" transform="translate(-285.62 -274.33)"/><path class="cls-1" d="M497.9,333.6a3.12,3.12,0,0,1,3.11-3.16,3.16,3.16,0,1,1-3.11,3.16Zm5.57,0a2.47,2.47,0,1,0-2.46,2.61A2.54,2.54,0,0,0,503.47,333.6Z" transform="translate(-285.62 -274.33)"/><path class="cls-1" d="M505.88,330.58h.52l2.45,3.47,2.46-3.47h.52v6h-.58v-5l-2.42,3.33-2.4-3.33v5h-.55Z" transform="translate(-285.62 -274.33)"/><path class="cls-1" d="M514,330.58h5v6h-.58V331.1h-3.85v5.51H514Z" transform="translate(-285.62 -274.33)"/><path class="cls-1" d="M520.74,334.84c0-1.26,1.07-2,2.63-2a7,7,0,0,1,2,.26v-.26a1.74,1.74,0,0,0-2-1.85,4,4,0,0,0-1.89.49l-.21-.51a4.8,4.8,0,0,1,2.14-.52,2.6,2.6,0,0,1,1.9.66,2.29,2.29,0,0,1,.61,1.7v3.76h-.56v-1a2.76,2.76,0,0,1-2.31,1.15C521.82,336.75,520.74,336.11,520.74,334.84Zm4.64-.49v-.68a8,8,0,0,0-2-.28c-1.27,0-2,.57-2,1.43s.7,1.39,1.74,1.39A2.07,2.07,0,0,0,525.38,334.35Z" transform="translate(-285.62 -274.33)"/><path class="cls-1" d="M528,330.58h.58v2.68h4v-2.68h.57v6h-.57v-2.82h-4v2.82H528Z" transform="translate(-285.62 -274.33)"/><path class="cls-1" d="M535.37,330.58H536v5.26l4.09-5.26h.58v6H540v-5.26L536,336.61h-.58Z" transform="translate(-285.62 -274.33)"/><path class="cls-1" d="M544.23,334.21a1.92,1.92,0,0,1-1.74-1.83c0-1.06.83-1.8,2.21-1.8h2.7v6h-.58v-2.32h-2L543,336.61h-.71Zm2.59-.44V331.1h-2c-1.06,0-1.67.52-1.67,1.31s.72,1.36,1.69,1.36Z" transform="translate(-285.62 -274.33)"/><path class="cls-2" d="M293.07,294.22A11.14,11.14,0,1,1,304.17,305,10.82,10.82,0,0,1,293.07,294.22Zm16.41,0a5.36,5.36,0,0,0-5.31-5.58,5.29,5.29,0,0,0-5.23,5.58,5.37,5.37,0,0,0,5.29,5.58A5.28,5.28,0,0,0,309.48,294.22Z" transform="translate(-285.62 -274.33)"/><path class="cls-2" d="M321.64,288.9h-6.2v-5h18.13v5h-6.2v15.65h-5.73Z" transform="translate(-285.62 -274.33)"/><path class="cls-3" d="M305.89,313.3h-6.2v-5h18.12v5h-6.2v15.64h-5.72Z" transform="translate(-285.62 -274.33)"/><path class="cls-3" d="M318.49,318.61a11.14,11.14,0,1,1,11.1,10.75A10.83,10.83,0,0,1,318.49,318.61Zm16.41,0a5.37,5.37,0,0,0-5.31-5.58,5.28,5.28,0,0,0-5.22,5.58,5.36,5.36,0,0,0,5.28,5.58A5.28,5.28,0,0,0,334.9,318.61Z" transform="translate(-285.62 -274.33)"/><path class="cls-3" d="M348.19,337.7H285.62V275.13h62.57ZM289.31,334H344.5V278.82H289.31Z" transform="translate(-285.62 -274.33)"/><path class="cls-2" d="M357,286.84a5.79,5.79,0,1,1,5.8-5.79A5.8,5.8,0,0,1,357,286.84Zm0-8.51a2.72,2.72,0,1,0,2.72,2.72A2.72,2.72,0,0,0,357,278.33Z" transform="translate(-285.62 -274.33)"/></svg>