<svg id="Layer_1" data-name="Layer 1" xmlns="http://www.w3.org/2000/svg" viewBox="0 0 270.39 98.13"><path d="M378-87c.19,1.16.29,2.08.5,3a18.65,18.65,0,0,0,17.24,14.71c7.58.58,13.55-2.35,18-8.5a5.51,5.51,0,0,1,8.54-1.06,3.35,3.35,0,0,1,.52,4.95c-.69.92-1.4,1.83-2.07,2.76a22.85,22.85,0,0,1-11.36,8.3c-7.56,2.65-15.21,3-22.72.25-10.11-3.68-16.13-11.07-17.84-21.72a30,30,0,0,1,2.63-18.9c4.33-8.37,11.11-13.6,20.51-15.06a30.54,30.54,0,0,1,18.15,2.37c8.22,3.91,13.2,10.49,15.13,19.34a66.45,66.45,0,0,1,.94,7.33c.15,1.52-.55,2.23-2.09,2.29-.71,0-1.43,0-2.14,0H378Zm38.31-9.19c-1.19-7.85-10.69-14.72-19.44-14.23-9.06.51-18.22,7.48-18.54,14.23Z" transform="translate(-202.91 138.84)"/><path d="M315.34-87.19c.12.84.18,1.42.29,2A18.92,18.92,0,0,0,334.3-69.34,19.23,19.23,0,0,0,351.09-78a5.54,5.54,0,0,1,8.79-.75,3.28,3.28,0,0,1,.31,4.59c-.55.75-1.14,1.48-1.67,2.24A23.6,23.6,0,0,1,346-62.75c-7.56,2.46-15.16,2.72-22.55-.17C313-67,307.11-75,305.89-86.25a29.36,29.36,0,0,1,2.19-15.61c4.27-9.41,11.43-15.2,21.83-16.61a30.75,30.75,0,0,1,16.14,1.83c9.21,3.84,14.65,10.86,16.63,20.56a49.76,49.76,0,0,1,.72,6.69c.13,1.82-.31,2.22-2.18,2.22-3.35,0-6.69,0-10,0q-16.79,0-33.55,0Zm38.32-9.19c-1.25-7.79-10.42-14.43-19.36-14.19-8.76.24-17.92,7.17-18.65,14.19Z" transform="translate(-202.91 138.84)"/><path d="M454.68-82.8c.66.62,1.07,1,1.51,1.41l14.65,12.48c.34.29.68.56,1,.86a4.41,4.41,0,0,1,.34,6.22,4.3,4.3,0,0,1-6.06.48c-3.39-2.78-6.7-5.66-10-8.51L441.8-82c-.44-.38-.9-.73-1.65-1.34,0,1-.07,1.63-.07,2.26q0,17.28,0,34.55c0,.55,0,1.1,0,1.64a4.36,4.36,0,0,1-4.57,4.2,4.3,4.3,0,0,1-4.22-4.36c0-.55,0-1.1,0-1.64v-68.12c0-.71,0-1.42,0-2.13,0-1.59.21-1.89,1.72-1.93,2.09-.06,4.17-.07,6.25-.07,5.05,0,10.1.2,15.13-.06,8.41-.43,17.84,6.43,18.73,16.29A17.84,17.84,0,0,1,458.8-83.64Zm-15.27-7a11.19,11.19,0,0,0,1.24.14c4.22,0,8.43,0,12.65,0a12.55,12.55,0,0,0,3.56-.5c3.92-1.23,7-3.52,7.95-7.73a11.08,11.08,0,0,0-10.91-13.71c-4.33,0-8.65,0-13,0-.47,0-.95.07-1.51.11Z" transform="translate(-202.91 138.84)"/><path d="M291.39-86.87H266.8c0,.72-.09,1.36-.09,2,0,6.31,0,12.61,0,18.91a8.27,8.27,0,0,1-.25,2.28,4.38,4.38,0,0,1-4.45,3,4.49,4.49,0,0,1-4.08-3.88,12.19,12.19,0,0,1,0-1.48q0-33.72,0-67.43a7.66,7.66,0,0,1,.37-2.57,4.31,4.31,0,0,1,4.75-2.71,4.4,4.4,0,0,1,3.66,3.89c.05.6,0,1.2,0,1.81v34.7c0,.7.06,1.4.09,2,1.46.38,22.87.4,24.5,0,0-.54.08-1.12.08-1.71q0-7.65,0-15.3c0-.49,0-1,0-1.47a4.35,4.35,0,0,1,4.19-4.07,4.4,4.4,0,0,1,4.57,3.86,12.14,12.14,0,0,1,0,1.48v47.36a12.14,12.14,0,0,1,0,1.48,4.47,4.47,0,0,1-4.48,4,4.43,4.43,0,0,1-4.28-4.19c0-.49,0-1,0-1.48v-20.5Z" transform="translate(-202.91 138.84)"/><path d="M227.87-60.49a32.45,32.45,0,0,1-16.49-4.44,21.81,21.81,0,0,1-5.77-4.83A18.85,18.85,0,0,1,203.45-73a3.69,3.69,0,0,1,.94-4.89c1.75-1.6,4.13-2.32,6.45-.68a23.73,23.73,0,0,1,3,2.76c.88.9,1.63,1.92,2.52,2.81a15.68,15.68,0,0,0,9.78,4.57,22.33,22.33,0,0,0,10.39-.93,15.73,15.73,0,0,0,4-2.14,5,5,0,0,0,.2-8.18,18.33,18.33,0,0,0-4.53-2.6,81.72,81.72,0,0,0-12.34-4c-3.39-.84-6.74-1.88-10.08-2.93a25.07,25.07,0,0,1-3.74-1.69,10,10,0,0,1-5.47-7.92c-1.05-7.1,1.67-12.75,8.11-15.92,9.81-4.83,19.7-5.17,29.41.35a32.15,32.15,0,0,1,5.08,3.87,8.45,8.45,0,0,1,2.47,4c.78,2.6-.53,3.94-2.78,4.44a5.17,5.17,0,0,1-5.2-1.74c-.25-.29-.5-.59-.72-.9a14.25,14.25,0,0,0-9.6-6,21.46,21.46,0,0,0-11.8.9,13.77,13.77,0,0,0-3.93,2.32c-2.7,2.29-2.68,5.43-.11,7.84a13.25,13.25,0,0,0,5.94,3c4.82,1.24,9.66,2.38,14.49,3.59a37.62,37.62,0,0,1,8.89,3.37c3.56,1.94,6.23,4.67,7.1,8.79,1,5,0,9.42-3.91,13a26.82,26.82,0,0,1-15.44,7C231-60.72,229.45-60.62,227.87-60.49Z" transform="translate(-202.91 138.84)"/></svg>