<?xml version="1.0" encoding="utf-8"?>
<!-- Generator: Adobe Illustrator 22.0.1, SVG Export Plug-In . SVG Version: 6.00 Build 0)  -->
<svg version="1.1" id="Layer_1" xmlns="http://www.w3.org/2000/svg" xmlns:xlink="http://www.w3.org/1999/xlink" x="0px" y="0px"
	 viewBox="0 0 301.4 260.4" style="enable-background:new 0 0 301.4 260.4;" xml:space="preserve">
<style type="text/css">
	.st0{fill:#0E89C6;}
</style>
<path class="st0" d="M279.5,2.9l-267.7,105c0,0-12.7,4.3-11.7,12.3s11.3,11.7,11.3,11.7l67.3,22.7l0.1,0.1v-0.1L240.4,51.9
	c0,0,9.3-5.7,9,0c0,0,1.7,1-3.3,5.7s-127,114.3-127,114.3l-0.2,2.1l109.8,84.2c18.3,8,25-8.7,25-8.7L301.4,9.2
	C301.4-6.8,279.4,2.9,279.5,2.9z"/>
<path class="st0" d="M160.9,206.2l-43.5,39.7c0,0-3.4,2.6-7.1,1l8.3-73.7"/>
</svg>
